<?xml version="1.0" ?><svg id="Line" viewBox="0 0 200 200" xmlns="http://www.w3.org/2000/svg"><path d="M145.327,149.9h-5.193v-6.477a1.925,1.925,0,0,0-1.925-1.925H127.981a1.925,1.925,0,0,0-1.924,1.925V149.9H120.12a1.917,1.917,0,0,0-.562-.78L62.9,102.9a21.757,21.757,0,0,0-.8-4.638L81.491,74.5A52.288,52.288,0,0,0,82.8,85.147a51.512,51.512,0,0,0,13.8,24.871l2.02,2.021a1.923,1.923,0,0,0,2.721,0L120.1,93.29a23.282,23.282,0,0,0,32.815-32.815L171.67,41.718a1.925,1.925,0,0,0,0-2.721l-2.021-2.02A51.684,51.684,0,0,0,112.3,26.216a18.746,18.746,0,0,0-30.46,9.4L43.367,82.782a21.646,21.646,0,1,0,6.946,41.226L82.064,149.9H70.409a21.657,21.657,0,0,0-21.632,21.633V176.3a1.924,1.924,0,0,0,1.924,1.924H165.034a1.924,1.924,0,0,0,1.925-1.924v-4.765A21.657,21.657,0,0,0,145.327,149.9Zm-15.422-4.553h6.38V149.9h-6.38Zm19-56.076a19.454,19.454,0,0,1-26.079,1.288L150.19,63.2A19.47,19.47,0,0,1,148.905,89.274Zm-9.428-63.156A47.348,47.348,0,0,1,166.928,39.7l.66.659L148.972,58.973l-.011.008c-.01.009-.016.02-.025.029L99.989,107.957l-.66-.66A47.659,47.659,0,0,1,86.555,84.282a48.17,48.17,0,0,1-1.063-14.99,1.932,1.932,0,0,0,.052-.513,47.853,47.853,0,0,1,47.478-43.09A48.857,48.857,0,0,1,139.477,26.118Zm-50.03,3.691A14.826,14.826,0,0,1,99.91,25.441h.1a14.742,14.742,0,0,1,8.454,2.646A52.018,52.018,0,0,0,87.734,48.861a14.784,14.784,0,0,1-2.391-5.649,15.119,15.119,0,0,1,.121-6.257A14.858,14.858,0,0,1,89.447,29.809ZM81.34,42.319c.056.545.122,1.089.225,1.624a18.6,18.6,0,0,0,4.272,8.743A51.1,51.1,0,0,0,81.75,68.093l-21.288,26.1A21.593,21.593,0,0,0,47.645,83.627Zm-52.6,74.593a17.8,17.8,0,1,1,12.587,5.213A17.823,17.823,0,0,1,28.743,116.912Zm25.132,5.036a21.839,21.839,0,0,0,2.763-2.315,21.5,21.5,0,0,0,6.046-11.939L114.425,149.9H88.153ZM163.11,174.377H52.626v-2.841a17.8,17.8,0,0,1,17.783-17.785h74.918a17.8,17.8,0,0,1,17.783,17.785Z"/><path d="M178.573,76.846H164.327a1.925,1.925,0,0,0,0,3.849h14.246a1.925,1.925,0,0,0,0-3.849Z"/><path d="M142.678,103.976v11.506a1.925,1.925,0,0,0,3.849,0V103.976a1.925,1.925,0,1,0-3.849,0Z"/><path d="M160.65,92.646a1.924,1.924,0,0,0-2.721,2.721l9.147,9.147a1.924,1.924,0,1,0,2.721-2.721Z"/></svg>