<?xml version="1.0" ?><!DOCTYPE svg  PUBLIC '-//W3C//DTD SVG 1.1//EN'  'http://www.w3.org/Graphics/SVG/1.1/DTD/svg11.dtd'><svg enable-background="new 0 0 24 24" height="24px" id="Layer_1" version="1.1" viewBox="0 0 24 24" width="24px" xml:space="preserve" xmlns="http://www.w3.org/2000/svg" xmlns:xlink="http://www.w3.org/1999/xlink"><g><path d="M22,10c0-4.4-2.6-8.3-6.4-10l-0.4,0.9C18.6,2.5,21,6,21,10c0,5.5-4.5,10-10,10c-1.2,0-2.4-0.2-3.5-0.6l-0.4,0.9   C8,20.6,9,20.9,10,21v2H7.5C7.2,23,7,23.2,7,23.5S7.2,24,7.5,24h7c0.3,0,0.5-0.2,0.5-0.5S14.8,23,14.5,23H12v-2.1   C17.6,20.4,22,15.7,22,10z"/><path d="M20,10c0-5-4-9-9-9s-9,4-9,9s4,9,9,9S20,15,20,10z M8.7,16.6c-0.2-0.9-0.4-1.9-0.5-2.7C9.2,13.9,10.1,14,11,14   s1.8-0.1,2.8-0.1c-0.1,0.9-0.3,1.9-0.5,2.7C12.6,16.9,11.8,17,11,17S9.4,16.9,8.7,16.6z M8.1,7.1C9.1,7.1,10,7,11,7   s1.9,0.1,2.9,0.1C13.9,8.1,14,9,14,10s-0.1,1.9-0.1,2.9C12.9,12.9,12,13,11,13s-1.9-0.1-2.9-0.1C8.1,11.9,8,11,8,10   S8.1,8.1,8.1,7.1z M14.4,16.1c0.1-0.7,0.3-1.6,0.4-2.3c0.7-0.1,1.6-0.2,2.3-0.4C16.5,14.5,15.5,15.5,14.4,16.1z M17.6,12.3   c-0.9,0.2-1.9,0.4-2.8,0.5c0.1-0.9,0.1-1.8,0.1-2.8s-0.1-1.8-0.1-2.8c0.9,0.1,1.9,0.3,2.7,0.5C17.9,8.4,18,9.2,18,10   C18,10.8,17.9,11.5,17.6,12.3z M17.1,6.6c-0.7-0.1-1.6-0.3-2.3-0.4c-0.1-0.7-0.2-1.6-0.4-2.3C15.5,4.5,16.5,5.5,17.1,6.6z    M13.3,3.4c0.2,0.9,0.4,1.9,0.5,2.7C12.8,6.1,11.9,6,11,6S9.2,6.1,8.2,6.1c0.1-0.9,0.3-1.9,0.5-2.7C9.4,3.1,10.2,3,11,3   C11.8,3,12.6,3.1,13.3,3.4z M7.6,3.9C7.4,4.6,7.3,5.5,7.2,6.2C6.5,6.3,5.6,6.5,4.9,6.6C5.5,5.5,6.5,4.5,7.6,3.9z M4.4,7.7   c0.9-0.2,1.9-0.4,2.8-0.5C7.1,8.2,7,9.1,7,10s0.1,1.8,0.1,2.8c-0.9-0.1-1.9-0.3-2.7-0.5C4.1,11.6,4,10.8,4,10   C4,9.2,4.1,8.5,4.4,7.7z M4.9,13.4c0.7,0.1,1.6,0.3,2.3,0.4c0.1,0.8,0.2,1.6,0.4,2.3C6.5,15.5,5.5,14.5,4.9,13.4z"/></g></svg>